<?xml version="1.0" encoding="UTF-8"?>
<svg width="40" height="40" viewBox="0 0 20 20" fill="none" xmlns="http://www.w3.org/2000/svg">
    <title>ic_content_location_on_light</title>
    <g id="content-stikers" stroke="none" stroke-width="1" fill="none" fill-rule="evenodd">
        <g id="Android-xxhdpi-Copy-3" fill="#FFFFFF">
            <path id="location_on_2"
                d="M10.0002 17.7707C9.80572 17.7707 9.61127 17.736 9.41683 17.6665C9.22238 17.5971 9.04877 17.4929 8.896 17.354C7.99322 16.5207 7.19461 15.7082 6.50016 14.9165C5.80572 14.1248 5.22586 13.3575 4.76058 12.6144C4.2953 11.8714 3.94113 11.1561 3.69808 10.4686C3.45502 9.78109 3.3335 9.12484 3.3335 8.49984C3.3335 6.4165 4.00363 4.75678 5.34391 3.52067C6.68419 2.28456 8.23627 1.6665 10.0002 1.6665C11.7641 1.6665 13.3161 2.28456 14.6564 3.52067C15.9967 4.75678 16.6668 6.4165 16.6668 8.49984C16.6668 9.12484 16.5453 9.78109 16.3022 10.4686C16.0592 11.1561 15.705 11.8714 15.2397 12.6144C14.7745 13.3575 14.1946 14.1248 13.5002 14.9165C12.8057 15.7082 12.0071 16.5207 11.1043 17.354C10.9516 17.4929 10.7779 17.5971 10.5835 17.6665C10.3891 17.736 10.1946 17.7707 10.0002 17.7707ZM10.0002 9.99984C10.4585 9.99984 10.8509 9.83664 11.1772 9.51025C11.5036 9.18387 11.6668 8.7915 11.6668 8.33317C11.6668 7.87484 11.5036 7.48248 11.1772 7.15609C10.8509 6.8297 10.4585 6.6665 10.0002 6.6665C9.54183 6.6665 9.14947 6.8297 8.82308 7.15609C8.49669 7.48248 8.3335 7.87484 8.3335 8.33317C8.3335 8.7915 8.49669 9.18387 8.82308 9.51025C9.14947 9.83664 9.54183 9.99984 10.0002 9.99984Z" />
        </g>
    </g>
</svg>

