<svg width="16" height="16" viewBox="0 0 16 16" fill="none" xmlns="http://www.w3.org/2000/svg">
<path d="M6.66667 14C5.93333 14 5.30556 13.7389 4.78333 13.2167C4.26111 12.6944 4 12.0667 4 11.3333C4 10.6 4.26111 9.97222 4.78333 9.45C5.30556 8.92778 5.93333 8.66667 6.66667 8.66667C6.92222 8.66667 7.15833 8.69722 7.375 8.75833C7.59167 8.81944 7.8 8.91111 8 9.03333V2.66667C8 2.47778 8.06389 2.31944 8.19167 2.19167C8.31944 2.06389 8.47778 2 8.66667 2H11.3333C11.5222 2 11.6806 2.06389 11.8083 2.19167C11.9361 2.31944 12 2.47778 12 2.66667V4C12 4.18889 11.9361 4.34722 11.8083 4.475C11.6806 4.60278 11.5222 4.66667 11.3333 4.66667H9.33333V11.3333C9.33333 12.0667 9.07222 12.6944 8.55 13.2167C8.02778 13.7389 7.4 14 6.66667 14Z" fill="#640150"/>
</svg>
