<svg width="23" height="24" viewBox="0 0 23 24" fill="none" xmlns="http://www.w3.org/2000/svg">
<path fill-rule="evenodd" clip-rule="evenodd" d="M17.8885 4C19.2512 4 20.3559 5.19391 20.3559 6.66667V17.3333C20.3559 18.8061 19.2512 20 17.8885 20H5.24323C3.88053 20 2.77585 18.8061 2.77585 17.3333V8.84848L0.873794 5.52617C0.49239 4.85997 0.935754 4 1.66062 4H17.8885ZM12.8586 9.20104L11.5659 10.5982L10.273 9.20088C9.98987 8.89484 9.54996 8.77978 9.19396 8.9788C8.60387 9.30927 8.5219 10.1118 8.94866 10.573L10.2689 11.9999L8.97593 13.3973C8.69244 13.7037 8.58622 14.1795 8.7709 14.5642C9.0769 15.2016 9.81913 15.2892 10.2457 14.8282L11.5658 13.4015L12.8583 14.7984C13.1418 15.1048 13.5817 15.2199 13.9377 15.0208C14.5275 14.6907 14.6098 13.8879 14.183 13.4266L12.8627 11.9997L14.1828 10.573C14.6091 10.1123 14.5281 9.31017 13.9383 8.97945C13.5826 8.77955 13.1421 8.89465 12.8586 9.20104Z" fill="#B3B9BD"/>
</svg>
